<?xml version="1.0" encoding="UTF-8" standalone="no"?>
<svg
   width="456"
   height="456"
   viewBox="0 0 456 456"
   version="1.1"
   id="svg4"
   sodipodi:docname="appicon.svg"
   inkscape:version="1.4.4 (dcaf3e7, 2026-05-05)"
   xml:space="preserve"
   xmlns:inkscape="http://www.inkscape.org/namespaces/inkscape"
   xmlns:sodipodi="http://sodipodi.sourceforge.net/DTD/sodipodi-0.dtd"
   xmlns="http://www.w3.org/2000/svg"
   xmlns:svg="http://www.w3.org/2000/svg"><defs
     id="defs4"><clipPath
       clipPathUnits="userSpaceOnUse"
       id="clipPath4"><rect
         style="fill:#5b7a62;stroke-width:0.481663"
         id="rect5"
         width="383.94226"
         height="207.69888"
         x="2.3129127"
         y="0.46258011" /></clipPath></defs><sodipodi:namedview
     id="namedview4"
     pagecolor="#505050"
     bordercolor="#eeeeee"
     borderopacity="1"
     inkscape:showpageshadow="0"
     inkscape:pageopacity="0"
     inkscape:pagecheckerboard="0"
     inkscape:deskcolor="#505050"
     inkscape:zoom="1.2917104"
     inkscape:cx="359.21364"
     inkscape:cy="229.54062"
     inkscape:window-width="1920"
     inkscape:window-height="1051"
     inkscape:window-x="-9"
     inkscape:window-y="-9"
     inkscape:window-maximized="1"
     inkscape:current-layer="svg4" /><!-- Background --><rect
     width="456"
     height="456"
     rx="96"
     fill="#EDEDF0"
     id="rect1"
     style="fill:#ffffff" /><!-- Your yellow icon, properly scaled --><g
     style="fill:none"
     id="g1"
     transform="matrix(10.389828,0,0,10.389828,103.70926,104.32043)"><path
       d="m 17.506624,16 c 0.7909,-1.1339 1.2547,-2.5128 1.2547,-4 0,-0.5149 -0.0556,-1.0168 -0.1611,-1.5 M 6.0160138,16 c -0.79088,-1.1338 -1.25469,-2.5128 -1.25469,-4 0,-3.86599 3.13401,-7 7.0000002,-7 0.4221,0 0.8355,0.03737 1.2371,0.10897 m 3.2628,2.39103 -4.5,4.5 m 10.0001,0 c 0,5.5228 -4.4772,10 -10,10 C 6.2384738,22 1.7613238,17.5228 1.7613238,12 c 0,-5.52285 4.47715,-10 10.0000002,-10 5.5228,0 10,4.47715 10,10 z m -9,0 c 0,0.5523 -0.4477,1 -1,1 -0.5523,0 -1,-0.4477 -1,-1 0,-0.5523 0.4477,-1 1,-1 0.5523,0 1,0.4477 1,1 z"
       stroke="#000000"
       stroke-width="2"
       stroke-linecap="round"
       stroke-linejoin="round"
       id="path1" /></g></svg>
